<svg width="24" height="24" viewBox="0 0 24 24" fill="none" xmlns="http://www.w3.org/2000/svg">
<path d="M2.4 22C1.74 22 1.1752 21.7676 0.7056 21.3029C0.236 20.8382 0.0008 20.2789 0 19.625V5.375C0 4.72187 0.2352 4.16296 0.7056 3.69825C1.176 3.23354 1.7408 3.00079 2.4 3H21.6C22.26 3 22.8252 3.23275 23.2956 3.69825C23.766 4.16375 24.0008 4.72267 24 5.375V19.625C24 20.2781 23.7652 20.8374 23.2956 21.3029C22.826 21.7684 22.2608 22.0008 21.6 22H2.4ZM12 13.4797C12.1 13.4797 12.2052 13.4646 12.3156 13.4346C12.426 13.4045 12.5308 13.3601 12.63 13.3016L21.12 8.04687C21.28 7.94792 21.4 7.82442 21.48 7.67637C21.56 7.52833 21.6 7.36485 21.6 7.18594C21.6 6.7901 21.43 6.49323 21.09 6.29531C20.75 6.0974 20.4 6.10729 20.04 6.325L12 11.3125L3.96 6.325C3.6 6.10729 3.25 6.10254 2.91 6.31075C2.57 6.51896 2.4 6.81069 2.4 7.18594C2.4 7.38385 2.44 7.55723 2.52 7.70606C2.6 7.8549 2.72 7.9685 2.88 8.04687L11.37 13.3016C11.47 13.3609 11.5752 13.4057 11.6856 13.4357C11.796 13.4658 11.9008 13.4805 12 13.4797Z" fill="#CCCCCC"/>
</svg>
