<svg width="24" height="24" viewBox="0 0 24 24" fill="none" xmlns="http://www.w3.org/2000/svg">
<g clip-path="url(#clip0_25649_7194)">
<path d="M2.4 22C1.74 22 1.1752 21.7676 0.7056 21.3029C0.236 20.8382 0.0008 20.2789 0 19.625V4.375C0 3.72187 0.2352 3.16296 0.7056 2.69825C1.176 2.23354 1.7408 2.00079 2.4 2H21.6C22.26 2 22.8252 2.23275 23.2956 2.69825C23.766 3.16375 24.0008 3.72267 24 4.375V19.625C24 20.2781 23.7652 20.8374 23.2956 21.3029C22.826 21.7684 22.2608 22.0008 21.6 22H2.4ZM12 12.4797C12.1 12.4797 12.2052 12.4646 12.3156 12.4346C12.426 12.4045 12.5308 12.3601 12.63 12.3016L21.12 7.04687C21.28 6.94792 21.4 6.82442 21.48 6.67637C21.56 6.52833 21.6 6.36485 21.6 6.18594C21.6 5.7901 21.43 5.49323 21.09 5.29531C20.75 5.0974 20.4 5.10729 20.04 5.325L12 10.3125L3.96 5.325C3.6 5.10729 3.25 5.10254 2.91 5.31075C2.57 5.51896 2.4 5.81069 2.4 6.18594C2.4 6.38385 2.44 6.55723 2.52 6.70606C2.6 6.8549 2.72 6.9685 2.88 7.04687L11.37 12.3016C11.47 12.3609 11.5752 12.4057 11.6856 12.4357C11.796 12.4658 11.9008 12.4805 12 12.4797Z" fill="#CCCCCC"/>
</g>
<defs>
<clipPath id="clip0_25649_7194">
<rect width="24" height="24" fill="white"/>
</clipPath>
</defs>
</svg>
