<svg width="24" height="24" viewBox="0 0 24 24" fill="none" xmlns="http://www.w3.org/2000/svg">
<mask id="mask0_25649_7196" style="mask-type:luminance" maskUnits="userSpaceOnUse" x="2" y="2" width="20" height="20">
<path d="M22 2H2V22H22V2Z" fill="white"/>
</mask>
<g mask="url(#mask0_25649_7196)">
<path d="M19.0392 19.0433H16.075V14.4025C16.075 13.2958 16.0525 11.8717 14.5317 11.8717C12.9875 11.8717 12.7517 13.0758 12.7517 14.3208V19.0433H9.79V9.5H12.6308V10.8008H12.67C13.0667 10.0508 14.0342 9.2575 15.48 9.2575C18.4842 9.2575 19.04 11.2342 19.04 13.8033L19.0392 19.0433ZM6.4475 8.19417C6.00879 8.19417 5.58804 8.01989 5.27782 7.70968C4.96761 7.39946 4.79333 6.97871 4.79333 6.54C4.79333 6.10129 4.96761 5.68054 5.27782 5.37033C5.58804 5.06011 6.00879 4.88583 6.4475 4.88583C6.88621 4.88583 7.30696 5.06011 7.61717 5.37033C7.92739 5.68054 8.10167 6.10129 8.10167 6.54C8.10167 6.97871 7.92739 7.39946 7.61717 7.70968C7.30696 8.01989 6.88621 8.19417 6.4475 8.19417ZM7.9325 19.0433H4.96167V9.5H7.9325V19.0433ZM20.5208 2H3.47583C2.66 2 2 2.645 2 3.44083V20.5592C2 21.3542 2.66 22 3.47583 22H20.5183C21.3333 22 22 21.3542 22 20.5592V3.44083C22 2.645 21.3333 2 20.5208 2Z" fill="#CCCCCC"/>
</g>
</svg>
