<svg width="24" height="24" viewBox="0 0 24 24" fill="none" xmlns="http://www.w3.org/2000/svg">
<g clip-path="url(#clip0_2578_26)">
<path d="M20.447 20.452H16.89V14.883C16.89 13.555 16.863 11.846 15.038 11.846C13.185 11.846 12.902 13.291 12.902 14.785V20.452H9.348V9H12.757V10.561H12.804C13.28 9.661 14.441 8.709 16.176 8.709C19.781 8.709 20.448 11.081 20.448 14.164L20.447 20.452ZM5.337 7.433C4.81055 7.433 4.30565 7.22387 3.93339 6.85161C3.56113 6.47935 3.352 5.97445 3.352 5.448C3.352 4.92155 3.56113 4.41665 3.93339 4.04439C4.30565 3.67213 4.81055 3.463 5.337 3.463C5.86345 3.463 6.36835 3.67213 6.74061 4.04439C7.11287 4.41665 7.322 4.92155 7.322 5.448C7.322 5.97445 7.11287 6.47935 6.74061 6.85161C6.36835 7.22387 5.86345 7.433 5.337 7.433ZM7.119 20.452H3.554V9H7.119V20.452ZM22.225 0H1.771C0.792 0 0 0.774 0 1.729V22.271C0 23.225 0.792 24 1.771 24H22.222C23.2 24 24 23.225 24 22.271V1.729C24 0.774 23.2 0 22.225 0Z" fill="#CCCCCC"/>
</g>
<defs>
<clipPath id="clip0_2578_26">
<rect width="24" height="24" fill="white"/>
</clipPath>
</defs>
</svg>
